<svg fill="#4a4a4a" xmlns="http://www.w3.org/2000/svg" xmlns:xlink="http://www.w3.org/1999/xlink" version="1.1" x="0px" y="0px" viewBox="0 0 64 64" enable-background="new 0 0 64 64" xml:space="preserve"><g><path d="M48.11,61.917H15.922c-3.12,0-5.659-2.539-5.659-5.66V12.403c0-3.103,2.539-5.627,5.659-5.627H48.11   c3.103,0,5.627,2.524,5.627,5.627v43.854C53.737,59.377,51.213,61.917,48.11,61.917z M15.922,8.776   c-2.018,0-3.659,1.627-3.659,3.627v43.854c0,2.018,1.642,3.66,3.659,3.66H48.11c2,0,3.627-1.642,3.627-3.66V12.403   c0-2-1.627-3.627-3.627-3.627H15.922z"></path></g><g><path d="M32.017,12.973c-0.553,0-1-0.448-1-1v-8.89c0-0.552,0.447-1,1-1s1,0.448,1,1v8.89   C33.017,12.525,32.569,12.973,32.017,12.973z"></path></g><g><path d="M41.601,13.039c-0.553,0-1-0.448-1-1v-8.89c0-0.552,0.447-1,1-1s1,0.448,1,1v8.89   C42.601,12.591,42.153,13.039,41.601,13.039z"></path></g><g><path d="M20.945,13.304c-0.553,0-1-0.448-1-1v-8.89c0-0.552,0.447-1,1-1s1,0.448,1,1v8.89   C21.945,12.856,21.498,13.304,20.945,13.304z"></path></g><g><path d="M47.086,23.185H17.442c-0.553,0-1-0.448-1-1s0.447-1,1-1h29.644c0.553,0,1,0.448,1,1S47.639,23.185,47.086,23.185z"></path></g><g><path d="M44.476,30.158H17.442c-0.553,0-1-0.448-1-1s0.447-1,1-1h27.033c0.553,0,1,0.448,1,1S45.028,30.158,44.476,30.158z"></path></g><g><path d="M38.361,37.131H17.442c-0.553,0-1-0.448-1-1s0.447-1,1-1h20.919c0.553,0,1,0.448,1,1S38.914,37.131,38.361,37.131z"></path></g><g><path d="M32.017,43.939H17.442c-0.553,0-1-0.448-1-1s0.447-1,1-1h14.574c0.553,0,1,0.448,1,1S32.569,43.939,32.017,43.939z"></path></g></svg>